<svg height="496pt" viewBox="0 0 496 496" width="496pt" xmlns="http://www.w3.org/2000/svg"><path d="m64 112h16v16h-16zm0 0"/><path d="m40 224h16v16h-16zm0 0"/><path d="m264 224h16v16h-16zm0 0"/><path d="m160 72c-26.472656 0-48 21.527344-48 48 0 18.304688-12.40625 34.222656-30.167969 38.71875l3.929688 15.511719c24.871093-6.292969 42.238281-28.597657 42.238281-54.230469 0-17.648438 14.351562-32 32-32zm0 0"/><path d="m96 56h16v16h-16zm0 0"/><path d="m192 40h16v16h-16zm0 0"/><path d="m216 112h16v16h-16zm0 0"/><path d="m280 136h16v16h-16zm0 0"/><path d="m152 152h16v16h-16zm0 0"/><path d="m112 208h16v16h-16zm0 0"/><path d="m479.792969 384c5.078125-6.703125 8.207031-14.960938 8.207031-24 0-12.550781-6.015625-24.320312-16-31.832031 0-.054688 0-.121094 0-.167969 0-22.054688-17.945312-40-40-40-4.945312 0-9.785156.894531-14.328125 2.640625-7.207031-11.417969-19.847656-18.640625-33.671875-18.640625s-26.464844 7.222656-33.671875 18.640625c-4.542969-1.746094-9.382813-2.640625-14.328125-2.640625-13.105469 0-25.015625 6.289062-32.449219 16.769531-9.671875-1.953125-19.292969-.160156-27.550781 4.71875-6.105469-3.609375-12.910156-5.488281-20-5.488281-20.480469 0-37.40625 15.464844-39.726562 35.328125-5.753907 2.449219-10.707032 6.207031-14.640626 10.808594-.984374-9.175781-1.632812-18.382813-1.632812-27.632813 0-13.070312 1.015625-26.183594 2.984375-39.136718 7.304687 7.738281 17.566406 12.632812 29.015625 12.632812 13.03125 0 24.945312-6.265625 32.382812-16.710938 2.632813.480469 5.152344.710938 7.617188.710938 26.472656 0 48-21.527344 48-48 0-4.886719-.777344-9.703125-2.320312-14.390625 21.328124-14.882813 34.320312-39.425781 34.320312-65.609375 0-44.113281-35.886719-80-80-80-.136719 0-.265625 0-.398438 0-4.027343-40.367188-38.195312-72-79.601562-72-22.40625 0-43.839844 9.574219-58.910156 25.992188-8.328125-6.425782-18.546875-9.992188-29.089844-9.992188-26.472656 0-48 21.527344-48 48 0 .792969.015625 1.574219.0625 2.375-23.308594 6.953125-40.0625 28.769531-40.0625 53.625 0 8.382812 1.855469 16.550781 5.414062 24.023438-13.238281 8.785156-21.414062 23.679687-21.414062 39.976562 0 8.464844 2.257812 16.65625 6.566406 24-4.308594 7.34375-6.566406 15.535156-6.566406 24 0 26.472656 21.527344 48 48 48 2.464844 0 4.984375-.230469 7.617188-.710938 7.4375 10.445313 19.351562 16.710938 32.382812 16.710938 19.519531 0 35.769531-14.078125 39.257812-32.609375.671876-.101563 1.34375-.175781 2.007813-.300781l1.695313 8.496094c3.34375 16.734374 5.039062 33.871093 5.039062 50.925781 0 24.144531-3.359375 48.144531-9.992188 71.34375l-5.167968 18.089843c-.558594 1.964844-.839844 4-.839844 6.03125 0 12.144532 9.886719 22.023438 22.03125 22.023438h33.96875c0 30.871094 25.121094 56 56 56h208c30.878906 0 56-25.128906 56-56v-56zm-253.703125-31.160156 6.222656-1.582032-.199219-6.425781c-.015625-.464843-.066406-.878906-.113281-.832031 0-13.230469 10.769531-24 24-24 5.398438 0 10.574219 1.871094 14.976562 5.433594l5.023438 4.054687 5.023438-4.054687c6.65625-5.386719 14.832031-7.050782 23.425781-3.800782l6.839843 2.582032 3.183594-6.582032c4.070313-8.410156 12.320313-13.632812 21.527344-13.632812 4.816406 0 9.457031 1.425781 13.433594 4.113281l8.597656 5.824219 3.433594-9.808594c3.375-9.640625 12.429687-16.128906 22.535156-16.128906s19.160156 6.488281 22.535156 16.128906l3.433594 9.808594 8.597656-5.824219c3.976563-2.6875 8.617188-4.113281 13.433594-4.113281 13.230469 0 24 10.769531 24 24 0 .800781-.136719 1.558594-.238281 2.335938l-.824219 6.191406 4.71875 2.65625c7.617188 4.28125 12.34375 12.257812 12.34375 20.816406 0 13.230469-10.769531 24-24 24h-238.449219c-.910156-2.566406-1.550781-5.230469-1.550781-8 0-10.910156 7.441406-20.441406 18.089844-23.160156zm-84.058594 71.160156c-3.328125 0-6.03125-2.703125-6.03125-6.03125 0-.5625.078125-1.128906.230469-1.664062l5.160156-18.066407c7.042969-24.621093 10.609375-50.09375 10.609375-75.734375 0-18.113281-1.800781-36.296875-5.351562-54.070312l-2.234376-11.1875c14.089844-8.359375 23.585938-23.695313 23.585938-41.246094h-16c0 17.648438-14.351562 32-32 32s-32-14.351562-32-32h-16c0 23.320312 16.726562 42.792969 38.808594 47.097656-3.046875 9.757813-12.054688 16.902344-22.808594 16.902344-9.097656 0-17.296875-5.144531-21.40625-13.414062l-3-6.050782-6.464844 1.945313c-3.457031 1.03125-6.359375 1.519531-9.128906 1.519531-17.648438 0-32-14.351562-32-32 0-6.855469 2.273438-13.496094 6.558594-19.175781l3.640625-4.824219-3.640625-4.824219c-4.285156-5.679687-6.558594-12.320312-6.558594-19.175781 0-12.886719 7.671875-24.464844 19.542969-29.488281l9.03125-3.816407-5.550781-8.085937c-4.589844-6.679687-7.023438-14.496094-7.023438-22.609375 0-19.65625 14.671875-36.648438 34.136719-39.511719l8.472656-1.25-1.824219-8.367187c-.527344-2.429688-.785156-4.6875-.785156-6.871094 0-17.648438 14.351562-32 32-32 9.167969 0 17.65625 3.878906 23.871094 10.9375l6.59375 7.460938 5.871094-8.039063c12.039062-16.511719 31.359374-26.359375 51.664062-26.359375 35.289062 0 64 28.710938 64.007812 63.632812l-.03125 9.757813 8.871094-.964844c2.351563-.257812 4.738282-.425781 7.152344-.425781 35.289062 0 64 28.710938 64 64 0 22.832031-12.351562 44.105469-32.238281 55.503906l-6.5625 3.761719 3.394531 6.765625c2.253906 4.511719 3.40625 9.214844 3.40625 13.96875 0 17.648438-14.351562 32-32 32-2.769531 0-5.671875-.488281-9.128906-1.519531l-6.464844-1.9375-3 6.050781c-4.109375 8.261719-12.308594 13.40625-21.40625 13.40625-13.230469 0-24-10.769531-24-24s10.769531-24 23.304688-24.039062l8.007812.3125 1.328125-6.617188c.503906-2.511719 1.390625-5.007812 2.710937-7.617188l3.433594-6.773437-6.585937-3.785156c-17.6875-10.167969-29.574219-28.242188-31.808594-48.367188l-15.902344 1.765625c2.472657 22.296875 14.40625 42.578125 32.457031 55.746094-18.234374 3.261719-32.128906 18.941406-32.816406 37.933594l-2.777344 13.875c-3.550781 17.773437-5.351562 35.964844-5.351562 54.070312 0 25.632813 3.566406 51.113282 10.609375 75.734375l5.152344 18.042969c.160156.558594.238281 1.125.238281 1.6875 0 3.328125-2.703125 6.03125-6.03125 6.03125zm337.96875 16c0 22.054688-17.945312 40-40 40h-208c-22.054688 0-40-17.945312-40-40h1.96875c12.144531 0 22.03125-9.878906 22.03125-22.03125 0-2.03125-.28125-4.066406-.847656-6.058594l-3.398438-11.910156h268.246094zm0 0"/><path d="m319.273438 362.511719c10.855468 6.417969 24.335937 7.28125 36 2.03125 5.109374 2.296875 10.480468 3.457031 16 3.457031v-16c-4.128907 0-8.160157-1.128906-11.976563-3.351562l-4.023437-2.34375-4.027344 2.34375c-8.804688 5.144531-19.183594 4.191406-26.941406-2.082032l-5.023438-4.054687-5.023438 4.054687c-6.617187 5.363282-14.890624 7.042969-23.417968 3.800782l-5.65625 14.96875c11.761718 4.441406 23.960937 3.160156 34.089844-2.824219zm0 0"/><path d="m424 352h16v16h-16zm0 0"/><path d="m376 304h16v16h-16zm0 0"/><path d="m248 336h16v16h-16zm0 0"/></svg>